<?xml version="1.0" encoding="utf-8"?>
<!-- Generator: Adobe Illustrator 25.4.1, SVG Export Plug-In . SVG Version: 6.00 Build 0)  -->
<svg version="1.1" id="Capa_1" xmlns="http://www.w3.org/2000/svg" xmlns:xlink="http://www.w3.org/1999/xlink" x="0px" y="0px"
	 viewBox="0 0 1199.28 1200.11" style="enable-background:new 0 0 1199.28 1200.11;" xml:space="preserve">
<style type="text/css">
	.st0{fill:#000529;}
	.st1{fill:#9BB4FE;}
	.st2{fill:#01031C;}
	.st3{fill:#CFF9FD;}
	.st4{fill:#E2FBFE;}
	.st5{fill:#D6F9FD;}
	.st6{fill:#E7FAFC;}
	.st7{fill:#000423;}
	.st8{fill:#00000A;}
	.st9{fill:#0F44BB;}
	.st10{fill:#ADD4FD;}
	.st11{fill:#151C5D;}
	.st12{fill:#EEE0CF;}
	.st13{fill:#3D4EB5;}
	.st14{fill:#2E389E;}
	.st15{fill:#1E288A;}
	.st16{fill:#145DCD;}
	.st17{fill:#CDF8FE;}
	.st18{fill:#FBF9F3;}
	.st19{fill:#DCF9FD;}
	.st20{fill:#C5F5FA;}
	.st21{fill:#C7F3F8;}
	.st22{fill:#5A69D8;}
	.st23{fill:#C4F6FA;}
	.st24{fill:#EEE0CD;}
	.st25{fill:#5B6AD8;}
	.st26{fill:#3A4BBC;}
</style>
<g>
	<g>
		<g>
			<path class="st0" d="M1124.26,681.75c-1.03-19.15-9.84-37.59-7.8-57.46c0.63-6.17,1.37-12.41,1.07-18.57
				c-1.47-30.32-3.3-60.59-9.45-90.48c-2.76-13.39-2.04-27.65-5.91-40.61c-6.43-21.51-9.36-43.73-15.59-65.31
				c-6.31-21.85-13.5-43.24-21.73-64.36c-10.05-25.79-24.16-49.4-38.64-72.91c-10.02-16.27-20.16-32.68-33.54-45.94
				c-26.05-25.81-54.36-48.74-87.71-65.51c-36.04-18.12-73.67-31.53-112.67-39.95c-50.57-10.93-102.27-11.9-153.97-10.67
				c-44.87,1.06-89.19,6.36-133.04,15.58c-40.58,8.53-79.88,21.33-117.83,37.93c-32.32,14.14-62.35,32.26-90.95,53.05
				c-31.7,23.06-59.49,50.25-84.17,80.24c-15.76,19.15-31.03,39.21-42.64,61.44c-12.32,23.58-26.25,46.39-34.91,71.77
				c-0.34,1.01-1.79,1.64-2.72,2.45c-0.64-1.08-1.79-2.15-1.82-3.25c-0.11-4.7,0.11-9.4,0.21-14.11c-4.9,3.03-3.29,9.43-6.85,13.21
				c-1.23,1.3-2.23,2.97-2.88,4.65c-16.13,41.49-25.7,84.72-30.24,128.75c-4.33,42.01-0.45,84,5.95,125.82
				c3.12,20.39,10.51,39.27,16.47,58.65c4.38,14.25,10.72,27.89,16.19,41.8c0,0,0,0,0,0c1.63,3.59,3.31,7.16,4.88,10.77
				c8.74,20.19,26.15,37.83,20.11,62.36c1.37-4.91,2.74-9.82,4.12-14.73c3.62-14.12-1.07-27.75-2.94-41.43
				c-8.51-62.38,2.03-118.03,54.95-159.01c13.67-10.58,20.73-23.13,16.87-40.98c-1.42-6.55-0.82-13.61-0.64-20.43
				c1.37-54.73,26.54-91.74,71.62-105.57c2-0.87,3.54-2.28,4.98-3.91c1.94-2.2,3.88-4.5,6.89-5.3c24.6-11.86,50.27-14.82,76.97-9.02
				c2.43,0.53,4.88,1.15,7.3-0.1c20.64-10.01,42.31-16.83,64.75-21.3c8.07-1.39,16.33-1.26,24.41-2.76
				c8.16-1.57,16.32-1.58,24.52-0.13c7.81,1.68,15.81,2.4,23.43,4.92c14.43,4.77,27.27,11.74,34.63,25.88
				c6.67,12.8,8.42,26.49,6.7,40.71c-0.33,2.77-1.25,5.58,0.32,8.28c0.31,0.36,0.64,0.66,1.03,0.8c0.01,0.14-0.01,0.28,0.01,0.42
				c0.39,2.19,1.76,3.91,2.81,5.79c13.65,24.62,19.53,50.59,12.21,78.35c-2.85,10.8-1.37,20.3,4.54,29.49
				c4.51,7.01,8.17,14.49,11.86,21.96c8,16.22,12.25,32.76,4.81,50.45c-0.38,0.91-0.52,1.93-0.78,2.89
				c-6.23,23.13-13.03,46.08-21.09,68.66c-3.75,9.41-7.17,18.93-12.73,27.52c-3.7,5.72-8.41,9.53-15.23,11
				c-10.24,2.22-20.61,3.44-30.95,4.79c-4.08-0.15-6.12,2.2-7.74,5.7c-2.99,6.45-3.34,13.28-2.32,19.96
				c1.7,11.23,6.36,21.12,16.02,27.98c13.48,0.7,26.88,1.96,40.22,3.87c22.68,3.25,44.81,8.89,65.93,17.64
				c26.3,10.88,49.18,27.07,68.76,47.85c11.75,12.47,21.28,26.37,28.17,42.1c5.28,12.05,9.54,24.52,14.73,36.6
				c6.41,14.91,11.76,30.08,12.01,46.59c0.76,9.86-3.88,17.75-9.85,24.77c-6.39,7.51-14.26,13.4-23.04,18.05
				c-1.88,1-5.1,1.39-4.07,4.97c3.13,0.93,5.02-2.05,7.72-2.45c2.33-1,4.66-2.01,6.99-3.01c22.89-4.91,45.91-9.24,68.62-14.86
				c29.1-7.2,56.45-18.9,83.25-32.51c21.88-11.12,42.01-24.65,62.34-38.08c18.62-12.3,36.58-25.69,52.18-41.42
				c6.73-6.79,13.69-14.59,18.68-23.24c7.6-13.16,12.07-29.18,22.36-39.49c17.51-17.54,21.62-41.6,35.04-60.89
				c9.2-13.23,9.66-29.91,12.6-45.64c2.89-15.42,12.21-29.68,14.76-45.1c2.04-12.33,3.81-24.91,5.49-37.4
				C1120.48,714.08,1125.12,697.77,1124.26,681.75z M131.5,462.85c0-0.85,0.07-1.69,0.19-2.51
				C131.63,461.21,131.57,462.06,131.5,462.85z M576.49,491.9c0.03-0.27,0.06-0.55,0.08-0.82
				C576.56,491.35,576.54,491.63,576.49,491.9z M727.83,484.56c-0.58,1.88-1.17,4-3.74,4.1c-2.67,0.11-3.17-2.03-3.8-3.91
				c-1.43-4.27-2.58-8.62-3.76-12.96c-1.16-4.27-3.73-6.29-8.2-6.6c-6.81-0.46-13.61-0.98-20.44-1.22
				c-3.05-0.11-6.19-1.09-7.48-4.16c-1.37-3.28,0.25-6.13,2.52-8.6c2.7-2.95,5.83-5.5,8.21-8.74c3.97-5.39,3.82-8.34-0.87-13.15
				c-3.84-3.94-7.65-7.92-10.74-12.49c-2.48-3.67-1.57-5.53,2.84-5.87c7.22-0.56,14.25,0.16,21.09,2.89c5.1,2.03,6.5,1,7.36-4.43
				c0.99-6.25,1.18-12.61,2.52-18.81c0.41-1.89,0.57-4.3,3.06-4.65c2.49-0.35,3.3,1.93,4.24,3.62c3.45,6.13,5.67,12.77,7.95,19.39
				c0.79,2.31,1.12,4.96,3.66,6.29c0.52,0.05,0.94-0.15,1.34-0.45c1.13-0.84,1.62-3.29,2.99-2.7c1.74,0.75-0.45,2.4-0.25,3.74
				c0.13,0.87,0.41,1.52,1.17,1.95c5.03,0.95,9.18-1.87,13.6-3.35c5.88-1.97,6.68-2.13,9.99,1.56c-0.11,0.31-0.22,0.61-0.32,0.92
				c0,0.01,0,0.01,0,0.02c-0.56,0.16-1.01,0.61-1.36,1.09c-4.07,5.69-7.96,11.5-11.58,17.49c-1.84,3.04-0.35,5.44,2.57,6.97
				c3.24,1.7,6.76,2.85,9.86,4.84c1.53,0.98,3.39,1.91,3.16,4.1c-0.23,2.23-2.33,2.68-4.01,3.26c-5.83,2.02-11.82,3.56-17.9,4.59
				c-5.52,0.93-8.45,3.91-9.62,9.3C730.75,473.95,729.46,479.31,727.83,484.56z M955.45,319.57c-0.8,2.59-3.15,2.04-5.08,1.83
				c-6.13-0.65-12.19-1.77-18.29-2.65c-21.54-3.1-42.94-7.77-64.96-5.52c-18.91,1.93-37.31,5.98-53.87,15.45
				c-18.3,10.46-34.71,23.54-49.05,39.1c-1.47,1.6-2.98,3.17-3.25,5.49c-0.02,0.25-0.01,0.51,0.01,0.76
				c-3.59,0.47-4.17,3.98-5.51,6.5c-1.85,3.46-3.99,5.06-7.88,3.14c-1.41-0.7-2.96-1.63-4.65-0.56c-2.52,2.04-5.74,2.28-8.64,3.34
				c-0.47,0.17-1.25,0.84-1.57-0.17c-0.05-0.16,0.82-0.36,1.28-0.53c3.32-1.21,7.26-0.72,9.93-3.6c0.5-0.85,0.75-1.82,0.82-2.82
				c1.56-21.97,7.51-42.75,16.92-62.6c0.65-1.36,1.4-2.78,1.07-4.29c2.53-2.29,3.95-5.33,5.63-8.19
				c6.96-11.81,14.88-22.93,24.36-32.83c21.35-22.3,46.58-39.14,74.34-52.37c1.35-0.65,2.72-1.34,4.21-1.54
				c2.81-0.37,4.48,1.48,3.79,4.23c-0.5,1.97-1.78,3.56-2.91,5.21c-3.84,5.64-7.93,11.13-11.45,16.98
				c-1.48,2.46-4.44,5.15-2.55,8.06c1.95,3.01,5.76,1.81,8.85,1.51c20.59-2.04,41.19-2.12,61.81-0.41c2.48,0.21,4.96,0.63,7.43,1
				c1.9,0.29,3.62,1.04,4.01,3.18c0.38,2.07-1.3,2.88-2.7,3.75c-1.28,0.8-2.7,1.3-4.06,1.92c-11.12,5.06-21.57,11.24-30.97,19.06
				c-4.71,3.91-4.18,6.76,1.49,8.92c4.82,1.84,9.73,3.47,14.51,5.42c12.06,4.94,23.51,11.03,34.32,18.31
				C954.5,315.79,956.17,317.26,955.45,319.57z"/>
			<path class="st0" d="M154.08,861.09c-0.29,1.05-0.59,2.1-0.88,3.14C153.54,863.17,153.83,862.12,154.08,861.09z"/>
		</g>
		<path class="st1" d="M433.62,1150.77c-53.94,3.61-107.53,0.77-160.59-9.69c-76.04-14.99-141.44-81.42-149.49-151.32
			c-3.9-33.85,6.67-64.78,19.2-95.38c4.02-9.83,7-20.09,10.46-30.15c0.68-6.33,2.77-12.37,3.99-18.59c1.7-10.6-0.96-20.9-2.36-31.24
			c-2.67-19.79-4.82-39.61-3.59-59.59c2.49-40.5,17.34-75.25,48.49-102.26c6.41-5.56,12.91-11.04,18.73-17.25
			c5.93-6.32,8.22-13.35,7.21-22.31c-3.27-28.87-1.27-57.32,11.11-84.11c12.23-26.46,32.67-43.65,60.86-51.43
			c31.51,2.03,61.86,8.59,90.26,22.94c22.37,11.31,36.69,29.67,46.44,52.18c9.96,22.99,17.38,46.76,22.01,71.39
			c0.15,0.82,0.14,1.66,0.19,2.49c-1.46,7.55-4.71,14.54-6.65,21.95c-6.49,24.72-8.07,49.76-6.22,75.21
			c1.11,15.26,6.05,28.49,16.74,39.5c10.62,10.94,24.04,16.18,38.73,17.63c10.53,1.04,21.3,1.12,31.68-2.13
			c3.09-0.13,5.94-1.09,8.56-2.73c4.51-2.18,8.26-5.51,12.4-8.24c2.54-1.67,5.01-4.03,8.57-2.75c2.23,3.37,0.6,6.45-0.94,9.35
			c-5.84,10.95-13.71,20.32-22.71,28.79c-5.98,3.64-10.59,8.99-16.36,12.96c-8.21,5.67-16.52,11.21-24.58,17.1
			c-7.65,5.59-15.29,11.33-20.8,19.18c-6.41,9.13-5.95,18.72,0.76,27.74c5.88,7.91,12.67,15.06,19.72,21.82
			c11.41,10.93,22.77,21.92,33.92,33.09c13.38,13.4,26.79,26.86,37.68,42.52c11.22,16.15,16.46,33.98,15.5,53.61
			c-0.1,2.01,0.04,3.98,0.34,5.96c-1.76,7.66-6.49,13.83-10.77,20.06c-22.48,32.7-51,58.94-85.42,78.72
			c-12.36,7.1-25.68,11.6-39.58,14.56C442.63,1151.19,438.11,1150.49,433.62,1150.77z"/>
		<path class="st2" d="M727.84,1113.84c2.72-0.64,5.43-1.28,8.15-1.92c-18.34,9.81-37.54,16.37-58.11,20.76
			c-23.35,4.98-46.95,6.01-70.38,9.1c-19.96,2.63-40.15,3.69-60.26,5.08c-30.94,2.14-61.89,4.18-92.86,5.79
			c-6.86,0.36-13.83-1.21-20.75-1.89c4.9-0.66,9.81-1.32,14.71-1.98c12.35-1.79,24.79-2.23,37.22-3.07
			c17.58-1.19,35.17-2.16,52.75-3.39c15.26-1.07,30.51-2.34,45.75-3.55c18.39-1.46,36.77-3.13,55.12-5.18
			c14.89-1.67,29.81-3.11,44.38-6.57c12.12-2.88,24.06-6.59,35.44-11.84C721.73,1113.92,724.51,1111.66,727.84,1113.84z"/>
		<path class="st3" d="M743.25,382.77c-0.27-23.68,6.95-45.49,16.67-66.68c0.76-1.65,1.48-3.32,2.22-4.99
			c24.07-44.47,61.58-73.84,106.53-94.87c2.79-1.31,5.42-2.04,7.65,0.71c2.14,2.63,1.32,5.12-0.47,7.72
			c-5.29,7.67-10.43,15.44-15.58,23.2c-0.8,1.2-1.29,2.6-1.93,3.91c1.41,0.08,2.84,0.35,4.23,0.22c24.28-2.27,48.55-2.41,72.83-0.12
			c3.35,0.32,6.5,0.84,7.34,4.64c0.92,4.13-2.24,5.37-5.26,6.64c-12.49,5.28-24.05,12.14-34.58,20.7c-1.12,0.91-2.04,2.08-3.05,3.13
			c1.4,0.69,2.73,1.57,4.2,2.04c17.86,5.74,34.51,13.96,50.17,24.26c2.91,1.91,5.05,4.11,3.49,7.77c-1.43,3.38-4.36,2.75-7.3,2.35
			c-33.68-4.53-67.02-13.45-101.51-5.73c-36.11,8.08-63.61,28.97-87.12,56.29c-1.51,2.1-3.6,4-4.43,6.35
			c-3.37,9.58-8.59,6.57-14.13,2.43L743.25,382.77z"/>
		<path class="st4" d="M893.11,725.87c36.4,0.8,67.78,12.37,85.11,46.5c12.5,24.6,8.82,50.04-4.29,74.24
			c-21.85,40.33-66.7,63.73-105.04,54.43c-0.16-0.04-0.34-0.03-0.49-0.09c-8.41-2.99-20.83-5.11-21.13-13.88
			c-0.27-8.03,12.41-6.68,19.61-8.54c36.65-9.48,55.39-58.63,36.58-96.44c-9.6-19.29-24.27-32.75-44.95-39.43
			c-3.68-1.19-8.47-2.3-8.31-6.95c0.15-4.24,5.07-3.67,8.13-4.72C869.59,727.15,881.2,725.72,893.11,725.87z"/>
		<path class="st5" d="M833.89,609.15c1.62,4.92-2.03,4.89-4.95,4.89c-10.64,0.01-19.2,1.91-18.32,15.68
			c0.16,2.54,1.06,7.13-2.97,8.08c-5.96,1.4-7.16-4.86-8.44-7.92c-4.2-9.95-9.36-4.8-14.41-1.79c-2.26,1.35-4.08,2-6.4,0.42
			c-2.59-1.78-0.57-4.22,0.12-5c7.08-7.98,6.21-15.92,0.57-24.09c-1.63-2.35-4.51-5.41-2.33-7.55c1.61-1.59,6.28-1.76,8.63-0.61
			c11.39,5.56,16.99-1.73,22.83-9.26c1.52-1.96,2.95-4.82,6.31-3.49c3.56,1.42,1.41,4.33,1.22,6.46c-0.34,3.79-0.93,7.63-2.03,11.27
			c-1.48,4.91,0.28,6.47,4.96,5.87C824.66,602.49,830.55,603.07,833.89,609.15z"/>
		<path class="st6" d="M1018.53,583.81c-9.8-0.35-12.86-7.47-13.27-14.58c-0.5-8.69,6.05-12.76,14.16-12.62
			c8.35,0.14,14.31,4.62,14.1,13.48C1033.31,579.42,1026.7,583.01,1018.53,583.81z"/>
		<path class="st7" d="M93.72,563.5c2.69-28.69,5.7-55.36,13.78-81.09c2.61-8.31,5.63-16.49,8.57-24.7
			c0.39-1.09,1.42-1.95,2.15-2.92c0.14,1.36,0.64,2.81,0.35,4.07c-4.95,21.77-10.19,43.48-14.95,65.3
			c-2.74,12.57-4.71,25.3-7.15,37.94c-0.2,1.06-1.31,1.94-2,2.9C93.91,563.87,93.34,562.73,93.72,563.5z"/>
		<path class="st8" d="M1073.12,408.38c-0.4,2.47,0.15,4.58-2.14,4.26c-2.26-0.31-3.33-2.26-2.92-4.39
			c0.29-1.48,1.43-2.79,2.18-4.17C1071.35,405.73,1072.46,407.39,1073.12,408.38z"/>
		<path class="st8" d="M122.58,453.53c1.36-1.64,2.73-3.31,4.11-4.98c0.41,0.73,1.36,1.75,1.15,2.15c-1.17,2.2-2.62,4.24-3.98,6.34
			C123.51,456.07,123.16,455.1,122.58,453.53z"/>
		<path class="st0" d="M833.89,609.15c-4.15-4.35-9.83-5.38-15.22-7.04C825.39,600.9,831.2,601.65,833.89,609.15z"/>
		<path class="st9" d="M727.84,1113.84c-69.25,29.76-143.69,24.7-216.26,31.99c-20.97,2.11-42.16,2.03-63.24,2.95
			c57.95-16.53,98.23-55.04,129.74-104.41c1.5-2.35,2.5-5.01,3.73-7.53c-0.27-3.6,1.02-6.84,2.45-10.01
			c6.9-15.35,11.29-31.25,10.91-48.24c-0.46-20.01-6.27-38.28-17.95-54.58c-3.97-5.54-7.86-11.15-12.2-16.41
			c-1.26-1.53-2.5-3.13-2.9-5.16c-0.21-2.55,1.36-3.55,3.54-3.97c1.48-0.29,2.99-0.28,4.48-0.07c34.72,4.94,68.21,13.94,98.52,32.1
			c33.4,20.01,59.57,46.99,74.2,83.59c6.78,16.97,14.33,33.68,19.74,51.16c1.05,3.41,2.66,1.97,4.43,1.71
			c-0.88,21.51-15.63,32.7-31.88,42.75C732.75,1111.19,730.27,1112.48,727.84,1113.84z"/>
		<path class="st10" d="M562.92,901.94c28.06,31.65,42.6,66.99,29.18,109.59c-2.73,8.66-6.83,16.89-10.31,25.32
			c-1.32-13.95-1.08-28.1-6.73-41.43c-6.9-16.26-18.41-29.13-30.05-41.89c-22.8-25.01-49.47-46.3-70.72-72.79
			c-9.06-11.29-7.02-27.01,4.51-35.87c14.45-11.12,29.23-21.81,43.84-32.71c4.48-3.34,8.89-6.79,13.33-10.19
			c1.9,1.98,0.62,3.74-0.58,5.28c-2.89,3.73-4.76,7.87-5.57,12.5c-8.1,0.17-7.78,7.71-8.41,11.97c-2.26,15.41,3.34,28.59,14.7,39.27
			c6.13,5.38,11.25,11.75,16.97,17.54c2.21,2.24,4.01,4.9,6.36,7.02C561.38,897.3,562.5,899.41,562.92,901.94z"/>
		<path class="st11" d="M532,779.99c-45.18,15.53-87.33-12.03-90.48-59.36c-2.17-32.47,1.72-64.15,13.64-94.63
			c-0.12-6.53,3.5-11.54,6.73-16.73c4.08-7.28,9.22-13.61,16.01-18.58c4.48-3.27,9.4-5.39,14.85-6.44
			c12.12,0.02,24.29-1.66,36.23,1.49c3.52,3.34,0.56,4.91-1.97,6.12c-5.81,2.76-10.51,6.84-15.1,11.26
			c-9.32,8.97-14.19,20.44-18.31,32.21c-5.39,15.41-9.11,31.23-10.39,47.6c-1.87,23.89,0.98,47.01,12.54,68.21
			c6.77,12.42,16.8,21.85,31.65,24.4c0.54,0.02,1.06,0.14,1.56,0.33C530.38,776.94,532.39,777.57,532,779.99z"/>
		<path class="st12" d="M529.83,819.74c-3.82-5.45,2.01-8.31,3.38-12.35c0.64-1.9,1.83-3.62,2.77-5.43
			c8.77-9.85,18.16-19.26,23.33-31.73c0.66-1.6,0.44-3.56,0.62-5.35c-0.6-2.11,0.73-3.51,1.96-4.83
			c12.21-13.09,18.29-29.14,22.33-46.17c4.51-19.01,6.53-38.26,5.95-57.81c-0.58-19.75-7.06-37.17-20.35-51.74
			c-6.13-6.72-14.43-10.51-23.04-13.34c-1.88-0.62-3.93-0.72-5.76-1.59c-0.49-0.23-0.92-0.53-1.31-0.9
			c-1.36-1.81-1.23-3.76-0.21-5.6c7.86-14.32,14.74-29.16,22.79-43.38c1.2-2.13,2.41-4.51,5.6-4c3.35,1.58,4.81,4.63,5.62,7.89
			c5.2,20.99,10.84,41.87,12.63,63.57c0.82,9.97,4.3,19.18,8.56,28.42c9.48,20.55,16.25,41.85,11.49,65.2
			c-4.68,22.98-8.58,46.11-15.56,68.56c-0.67,2.16-1.4,4.44-0.76,6.81C580.62,809.27,563.23,821.94,529.83,819.74z"/>
		<path class="st13" d="M463.03,610.01c-2.62,5.33-5.25,10.66-7.87,15.99c-6.12-28.88-14.32-57.05-27.74-83.52
			c-17.52-34.56-49.42-47.77-84.16-56.15c-14.8-3.57-30.11-4.98-45.19-7.38c2.59-4.06,5.53-7.77,9.94-10.02
			c2.43,1.4,5.13,1.15,7.77,1.31c30.97,1.88,59.99,9.7,85.52,28.12c15.98,11.54,27.73,26.46,36.63,44.02
			c7.63,15.06,13.14,30.88,18.62,46.74C458.92,596.01,459.62,603.43,463.03,610.01z"/>
		<path class="st14" d="M540.95,588.21c23.53,3.11,43.16,21.08,48.01,48.45c7.46,42.13,2.33,82.78-21.44,119.66
			c-2.04,3.17-5.04,5.72-7.59,8.56c-6.61,4.07-13.22,8.14-19.84,12.21c-3.7,0-7.43,2.66-11.1-0.11c-0.32,0-0.65-0.01-0.97-0.02
			c-1.1-1.03-3.62,0.22-3.77-2.33c-0.11-1.9,1.19-2.98,2.46-4.05c3.68-3.08,7.71-5.66,11.69-8.32c2.75-1.84,5.18-4.02,7.22-6.7
			c2.12-2.79,3.04-5.35,0.14-8.12c0.68-1.57,2.08-2.17,3.54-2.01c2.73,0.29,4.53-1.27,6.45-2.72c16.26-4.79,21.29-18.46,25.29-32.61
			c5.54-19.6,5.86-39.77,4.8-59.9c-0.46-8.77-2.64-17.45-7.83-24.95c-4.8-6.93-10.92-11.56-19.82-11.38c-1.82,0.04-3.67,0-5.34-0.86
			c-0.5-0.38-1.37-0.96-0.95-1.5c3.92-4.98-0.16-7.73-2.97-10.74c-1.48-1.58-3.49-2.49-5.46-3.37c-1.67-0.74-3.31-1.55-4.74-2.68
			c-1.54-1.22-3.46-2.44-2.77-4.79C536.73,587.23,539.13,588.39,540.95,588.21z"/>
		<path class="st15" d="M528.99,776.98c3.7,0.04,7.4,0.08,11.1,0.11c-2.7,0.96-5.4,1.93-8.1,2.89
			C531,778.99,530,777.98,528.99,776.98z"/>
		<path class="st16" d="M562.92,901.94c-8.93-10.32-17.87-20.63-26.8-30.95c25.64-0.47,50.57,4.18,75.26,10.53
			c45.54,11.71,83.4,35.41,112.42,72.6c15.7,20.12,22.52,44.6,32.27,67.62c6.14,14.49,11.11,29.23,10.94,45.24
			c-0.94,2.11-1.87,4.23-2.81,6.34c-1.08-2.5-2.24-4.97-3.22-7.51c-14.05-36.26-24.86-74.21-53.51-102.86
			c-27.51-27.51-60.63-45.14-98.05-54.82c-12.83-3.32-25.94-5.55-38.99-7.93C568.02,899.75,564.68,898.33,562.92,901.94z"/>
		<path class="st17" d="M761.98,417.06c-4.35,6.46-8.56,13.03-13.12,19.34c-2.63,3.65,0.69,3.38,2.35,4.62
			c4.92,3.67,15.19,3.04,14.38,10.57c-0.77,7.16-10.53,7.44-16.22,7.53c-17.03,0.28-16.22,13.29-19.24,23.98
			c-0.92,3.23-0.38,7.66-5.79,7.97c-5.46,0.32-5.86-4.33-6-7.17c-0.85-17.48-12.06-19.28-25.76-17.89
			c-5.57,0.57-11.73-0.08-14.11-5.23c-2.4-5.2,1.23-10.18,5.79-13.38c16.21-11.37,3.08-18.38-3.73-26.41
			c-2.14-2.52-6.13-4.42-4.71-8.54c1.54-4.49,5.93-3.84,9.43-3.59c5.27,0.37,11.12,0.18,15.6,2.45c8.14,4.12,8.81,0.65,8.91-6.15
			c0.07-5.46,1.21-10.9,1.89-16.34c0.33-2.66,1.36-4.9,4.29-5.44c3.32-0.61,4.88,1.66,5.91,4.23c3.71,9.24,7.32,18.52,10.96,27.78
			c1.68,0.01,2.76,1.38,4.23,1.84c5.8-1.97,11.58-4.03,17.42-5.88c5.03-1.6,8.38-0.64,7.53,5.7
			C761.99,417.04,761.98,417.06,761.98,417.06z"/>
		<path class="st18" d="M589.89,775.96c-1.79-11.22,3.69-21.23,5.44-31.86c2.98-18.11,7.78-35.95,10.2-54.13
			c2.46-18.44-3.54-36.25-11.75-52.04c-8.11-15.6-7.99-32.2-11.89-48.27c-4.38-18.02-4.51-37.26-14.83-53.64
			c-0.78-0.68-1.35-1.56-1.25-2.57c0.59-6.16,2.8-11.73,6.28-16.82c0.38-0.56,1.08-0.69,1.77-0.59c0.39,0.31,0.78,0.61,1.17,0.92
			c17.44,27.75,23.94,57.45,14.8,89.46c-2.86,10.02,1.97,17.24,6.14,25.07c9.96,18.7,23.87,37.07,19.24,59.37
			c-5.19,25.03-14.08,49.3-21.43,73.89C592.65,768.54,591.19,772.22,589.89,775.96z"/>
		<path class="st19" d="M719.03,825.74c-0.13,12.27-5.85,18.47-16.71,18.57c-9.89,0.09-15.56-5.87-15.38-15.7
			c0.2-10.59,5.53-17.61,16.97-17.44C713.9,811.32,718.72,817.11,719.03,825.74z"/>
		<path class="st0" d="M120.19,734.66c-0.67,0.92-1.22,2.4-2.2,2.78c-0.62,0.24-2.32-0.94-2.79-1.86
			c-12.15-24.06-15.39-50.37-19.06-76.54c-1.08-7.69-1.46-15.48-2-23.24c-0.1-1.35,0.56-2.75,0.87-4.12
			c1.03,1.13,2.77,2.14,2.99,3.41c2.17,12.29,4.46,24.58,5.96,36.97c1.65,13.6,6.69,26.16,10.6,39.09
			C116.85,718.71,118.28,726.54,120.19,734.66z"/>
		<path class="st20" d="M475.1,310.67c-4.98-2.22-5.58,1.33-6.54,4.93c-0.41,1.52-1.86,2.76-2.84,4.13
			c-1.17-1.29-3.18-2.47-3.36-3.88c-0.76-6.23-4.22-9.59-10.07-10.99c-0.62-0.15-1.24-0.55-1.72-0.99
			c-1.71-1.55-0.65-4.77-0.07-4.44c11.8,6.62-0.67-22.2,14.07-9.66c3.47,2.95,4.7,4.1,7.35-0.11c1.1-1.75,2.38-4.99,5.1-3.58
			c2.96,1.53,1.82,4.86,0.78,7.17c-2.19,4.86-3.83,9.06,3.32,11.16c0.92,0.27,2.09,3.09,1.65,4.02
			C481.25,311.66,477.89,310.16,475.1,310.67z"/>
		<path class="st21" d="M672.52,239.83c-3.76-1.18-10.75,2.14-10.34-5.45c0.39-7.11,6.07-9.93,12.72-9.83
			c4.46,0.07,9.82,1.6,9.14,6.81C683.34,236.7,680.03,241.86,672.52,239.83z"/>
		<path class="st0" d="M134.52,770.19c-0.46,4.39-0.68,6.48-0.9,8.57c-2.96-1.25-4.51-3.45-5.57-6.55
			c-3.32-9.78-7.06-19.41-10.47-29.16c-0.33-0.95,0.15-2.82,0.9-3.39c1.74-1.32,4.34-0.55,4.59,1.19
			C124.72,752.13,132.35,761.28,134.52,770.19z"/>
		<path class="st0" d="M112.29,618.06c-1.21,3.38,0.6,10.39-1.63,9.64c-4.35-1.46-2.46-7.69-2.45-11.95
			c0.01-2.64-1.36-8.01,2.01-7.36C114.38,609.2,110.98,614.78,112.29,618.06z"/>
		<path class="st2" d="M746.99,340.8c-1.23,3.1-1.33,7.34-5.39,9.39c-0.11,0.06-1.39-1.91-1.37-1.92
			c5.15-3.86-3.57-10.92,2.82-13.68C745.43,333.55,746.95,337.36,746.99,340.8z"/>
		<path class="st2" d="M694.83,234.41c-1.48,1.01-3.15,2.4-5.06,3.26c-0.45,0.2-2.59-1.66-2.45-2.11c1.21-3.96,2.76-7.82,4.21-11.7
			C692.53,227.05,693.52,230.23,694.83,234.41z"/>
		<path class="st2" d="M743.24,382.76c-2.12,6.21-8.62,4.19-12.73,6.68c-0.07,0.04-1.49-1.4-1.37-1.92c0.27-1.14,0.99-2.9,1.79-3.06
			c4.06-0.8,8.2-1.16,12.31-1.68c0,0-0.29,0.19-0.29,0.19L743.24,382.76z"/>
		<path class="st2" d="M737.04,417.22c-2.29,1.41-4.35,2.29-4.23-1.84c0.4-2.41,0.42-5.43,3.32-5.93c1.9-0.33,5.12,0.04,3.89,3.64
			C739.49,414.63,738.06,415.85,737.04,417.22z"/>
		<path class="st0" d="M133.21,783.58c0.56-1.34,1.57-4.26,1.78-4.21c3.08,0.82,3.55,3.7,3.83,6.27c0.1,0.94-1.53,3-2.26,2.95
			C133.9,788.4,133.51,786.07,133.21,783.58z"/>
		<path class="st0" d="M143.78,798.02c2.44,4.7,4.24,7.94,5.77,11.3c0.23,0.5-1.04,2.33-1.26,2.27c-4.54-1.27-2.65-6.25-4.96-8.95
			C142.87,802.11,143.48,800.66,143.78,798.02z"/>
		<path class="st2" d="M731.57,319.05c2.03-0.01,4.39,0.13,4.59,2.56c0.2,2.47-2.1,2.44-3.93,2.42c-1.93-0.02-4.37,0.39-4.52-2.41
			C727.58,319.19,729.66,319.01,731.57,319.05z"/>
		<path class="st2" d="M659.39,227.73c-0.35-0.45-1.21-1.28-1.1-1.45c1.53-2.25,3.2-4.41,4.84-6.59c0.41,0.85,1.18,1.7,1.17,2.55
			C664.26,225.16,662.21,226.56,659.39,227.73z"/>
		<path class="st2" d="M721.28,374.26c1.7,1.53,3.06,2.76,4.42,3.99c-0.66,0.5-1.59,1.57-1.93,1.4c-1.83-0.89-3.51-2.08-5.24-3.16
			C719.29,375.88,720.04,375.27,721.28,374.26z"/>
		<path class="st0" d="M373.04,444.02c-1.57,1.21-2.68,2.63-3.33,2.45c-1.22-0.35-2.18-1.63-3.24-2.52
			c1.05-0.91,1.98-2.24,3.18-2.55C370.32,441.22,371.44,442.72,373.04,444.02z"/>
		<path class="st0" d="M377.71,426.14c-1.62,1.24-2.82,2.71-3.41,2.49c-1.18-0.43-2.03-1.77-3.02-2.74
			c0.83-0.82,1.73-2.37,2.48-2.31C374.91,423.69,375.95,424.92,377.71,426.14z"/>
		<path class="st2" d="M690.09,241.7c-1.77,1.51-2.66,2.62-3.81,3.08c-0.42,0.17-2.19-1.44-2.07-1.85c0.37-1.23,1.19-2.54,2.22-3.23
			C686.84,239.42,688.28,240.67,690.09,241.7z"/>
		<path class="st0" d="M112.73,480.39c-1.73,5.1-3.59,10.57-5.49,16.03c-0.03,0.08-0.64-0.05-0.98-0.08
			c1.35-6.14,2.69-12.29,4.11-18.42c0.09-0.37,0.92-0.58,1.41-0.86C112.04,477.97,112.3,478.86,112.73,480.39z"/>
		<path class="st0" d="M102.24,524.17c-0.94,3.34-1.69,6.02-2.44,8.7c-0.23-2.66-0.64-5.32-0.61-7.98c0.01-1.09,0.98-2.16,1.51-3.24
			C101.28,522.6,101.87,523.56,102.24,524.17z"/>
		<path class="st1" d="M530.04,587.07c-12.99-0.3-25.97-0.6-38.96-0.89c-4.26,1.46-5.43-1.25-6.61-4.55
			c-7.27-20.39-14.42-40.82-24.16-60.24c-12.95-25.81-33.1-43.84-59.16-55.64c-1.82-0.82-3.75-1.45-5.37-2.64
			c-1.27-0.94-3.07-1.79-1.73-3.94c20.12-10.67,41.55-17.36,63.94-21.17c13.11,0.88,26.13,2.44,38.97,5.26
			c17.94,3.94,34.86,10.02,48.09,23.6c8.77,9,12.91,20.02,13.81,32.33c0.78,10.7-0.72,21.24-3.06,31.67
			c-3.56,15.9-7.22,31.79-13.38,46.93c-1.4,3.43-2.1,7.28-4.85,10.11C534.89,588.99,532.33,589.28,530.04,587.07z"/>
		<path class="st22" d="M394.05,459.18c10.3,6.05,20.91,11.65,30.86,18.25c29.79,19.77,41.96,51.19,53.71,82.78
			c2.83,7.61,5.62,15.25,8.09,22.98c0.81,2.52,2.26,2.94,4.36,2.99c-13.17,3.44-21.08,13.09-28.05,23.83
			c-7.24-2.58-5.14-9.87-6.62-14.79c-13.55-45.15-30.92-87.28-77.92-108.25c-20.86-9.31-42.66-14.48-65.54-15.05
			c-1.86-0.05-5.72,1.88-4.96-3.01c24.8-13.34,51.01-15.94,78.32-10.41C388.84,459.02,391.47,458.97,394.05,459.18z"/>
		<path class="st10" d="M537.85,587.22c8.42-26.87,18.51-53.44,19.04-82.04c0.51-27.66-16.94-48.29-45.21-56.16
			c-16.21-4.51-32.66-7.07-49.28-9.06c-1.53-0.18-2.95-1.27-4.42-1.94c8.25-1.05,16.5-2.09,24.76-3.14
			c8.82-0.55,17.65-0.6,26.47,0.03c24.26,3.2,46.92,9.35,59.32,33.45c7.8,15.16,7.4,31.36,5.32,47.69c-3.04,6.4-6.35,12.7-6.8,19.97
			c-10.38,16.58-19.48,33.82-27.04,51.87C538.93,588.82,538.2,588.65,537.85,587.22z"/>
		<path class="st23" d="M258.87,433.13c-6.76-0.66-13.18-3.31-11.75-9.53c1.83-7.93,7.71-15.35,16.74-15.8
			c7.39-0.37,7.87,7.85,7.92,12.62C271.85,428.34,265.16,431.39,258.87,433.13z"/>
		<path class="st1" d="M509.21,434.9c-8.82-0.01-17.65-0.02-26.47-0.03C491.57,433.61,500.39,433.61,509.21,434.9z"/>
		<path class="st15" d="M537.85,587.22c0.72,0.22,1.44,0.45,2.16,0.67c0.32,0.08,0.63,0.19,0.94,0.32c-1.4,0.71-2.79,1.42-4.19,2.13
			c1.23,1.21,2.28,2.77,3.73,3.56c5.3,2.9,10.82,5.11,14.14,10.95c2.42,4.25,2.3,6.2-2.68,6.99c-1.55,3.15-4.89,3.77-7.59,5.21
			c-2.78,1.49-5.4,3.25-8.26,4.6c-11.6,5.82-17.76,16.16-21.06,27.83c-6.03,21.34-6.32,43.1-0.79,64.63
			c2.2,8.56,6.19,16.51,12.68,22.92c4.21,4.16,8.55,7.92,14.78,8.6c1.64,0.18,3.26,0.76,4.26,2.3c5.08-0.37,5.52,1.2,3.12,5.6
			c-4.82,8.84-14.05,12.18-21.25,18.02c-2.91,2.36-3.3,3.68,0.16,5.39c-22.62-3.06-32.97-19.24-39.85-38.33
			c-11.81-32.77-8.33-65.38,1.84-97.95c5.23-16.75,11.93-32.36,25.76-43.82c4.42-3.67,9.49-6.55,14.27-9.79
			C532.64,587.12,535.25,587.17,537.85,587.22z"/>
		<path class="st24" d="M602.99,683.24c-1.75,18.85-4.52,38.69-11.51,58.29c-2.5,6.99-1.9,17.1-4.82,24.85
			c-4.82,12.77-5.87,27.2-15.4,38.05c-1.98,2.26-5.44,5.12-7.36,3.46c-2.37-2.05,2.27-3.56,3.01-5.61c1.28-3.53,1.89-7.3,2.66-11
			c0.09-0.42-0.6-1-0.92-1.5c-0.58,0.68-1.62,1.33-1.68,2.06c-1.61,18.46-14.2,22.81-29.8,23.29c-0.62,0.02-1.26-0.43-1.9-0.66
			c2.38-3.47,4.68-7,7.18-10.39c1.58-2.14,3.78-2.74,6.16-1.29c2.17,1.32,3.83,0.72,5.14-1.16c0.73-1.05,1.18-2.31,1.75-3.47
			c-1.51-0.08-3.05,0.02-4.51-0.29c-0.99-0.21-2.71-1.33-2.66-1.44c0.85-2.05,1.69-4.2,3.05-5.91c0.59-0.74,2.83-1.18,3.46-0.67
			c1.25,1,1.9,2.75,2.81,4.18c0.75-3.01,2.26-6.05,2.11-9.02c-0.43-8.6,6.15-14.27,8.54-21.7c1.09-3.39,3.54,0.98,5.48,1.46
			c1.39,0.35,2.86,0.8,4.21,0.59c0.47-0.07,1.14-2.1,0.87-2.98c-0.37-1.22-1.44-3.05-2.38-3.16c-8.29-0.98-3.28-4.63-1.23-6.87
			c9.98-10.9,14.27-25.22,17.38-38.38c2.46-10.42,4.25-22.09,4.4-33.41c0.04-2.95-0.21-8.07,2.77-7.74
			C603.33,673.23,603.03,678.28,602.99,683.24z"/>
		<path class="st25" d="M536.02,620.02c5.31-2.73,10.62-5.45,15.94-8.18c20.45,0.53,30.3,7.49,33.76,27.74
			c5.33,31.15,3.8,61.97-11.05,90.84c-3.82,7.43-10.1,12.26-18.64,13.61c-4.79,2.44-9.53,1.45-13.84-0.9
			c-6.67-3.64-12.01-8.82-15.92-15.43c-6.65-11.26-10.29-23.47-10.95-36.44c-0.73-14.29-0.61-28.63,2.97-42.62
			C521.19,637.3,526.14,627.09,536.02,620.02z"/>
		<path class="st26" d="M536.02,620.02c-25.44,33.66-24.98,69.53-8.11,106.21c5.17,11.25,14.77,18.15,28.12,17.79
			c-2.24,4.14-6.99,1.85-10.04,3.92c-15.21-1.2-29.17-14.16-33.58-32.83c-5.67-23.99-5.89-48.16,2.8-71.55
			C518.98,633.42,525.09,624.32,536.02,620.02z"/>
	</g>
</g>
</svg>
