<svg xmlns="http://www.w3.org/2000/svg"  viewBox="0 0 48 48" width="480px" height="480px"><circle cx="8.004" cy="14.949" r="8" fill="#6c19ff"/><ellipse cx="24" cy="15" fill="#6c19ff" rx="12" ry="10"/><path fill="#6c19ff" d="M24,41c-3.866,0-7-2.596-7-9.5S20.134,16,24,16s7,8.596,7,15.5S27.866,41,24,41z"/><circle cx="40" cy="15" r="8" fill="#6c19ff"/><path fill="#6c19ff" d="M23,43H13c0-2.761,2.239-5,5-5S23,40.239,23,43z"/><path fill="#6c19ff" d="M35,43H25c0-2.761,2.239-5,5-5S35,40.239,35,43z"/><path fill="#6c19ff" d="M15,32.5h-3c0-4.136,3.364-7.5,7.5-7.5v3C17.019,28,15,30.019,15,32.5z"/><path fill="#6c19ff" d="M36,32.5h-3c0-2.481-2.019-4.5-4.5-4.5v-3C32.636,25,36,28.364,36,32.5z"/><ellipse cx="24" cy="15" fill="#ddbaff" rx="8" ry="7"/><circle cx="19.5" cy="14.5" r="1.5" fill="#6c19ff"/><circle cx="28.5" cy="14.5" r="1.5" fill="#6c19ff"/><polygon fill="#6c19ff" points="25,16 23,16 24,14"/><path fill="#6c19ff" d="M26,18c0,1.105-0.895,2-2,2s-2-0.895-2-2H26z"/><path fill="#2100c4" d="M12,15c0,1.986,0.703,3.832,1.901,5.388C15.201,18.966,16,17.078,16,15s-0.799-3.966-2.099-5.388 C12.703,11.168,12,13.014,12,15z"/><path fill="#2100c4" d="M32,15c0,2.078,0.799,3.966,2.099,5.388C35.297,18.832,36,16.986,36,15s-0.703-3.832-1.901-5.388 C32.799,11.034,32,12.922,32,15z"/><g><path fill="#2100c4" d="M30.237,25.211C29.678,25.078,29.099,25,28.5,25v3c0.858,0,1.652,0.254,2.335,0.672 C30.706,27.511,30.502,26.345,30.237,25.211z"/><path fill="#2100c4" d="M19.5,28v-3c-0.599,0-1.178,0.078-1.737,0.211c-0.266,1.134-0.47,2.3-0.598,3.461 C17.848,28.254,18.642,28,19.5,28z"/></g></svg>